# xmcd
#
# Track frame offsets:
#  150
#  14879
#  26735
#  38920
#  53724
#  63582
#  76964
#  95288
#  111858
#  135027
#  146680
#  158854
#  169789
#  194369
#  205204
#  221779
#  238752
#  259627
#  272606
#  286442
#
# Disc length: 4106 seconds
#
# Revision: 0
# Processed by: cddbd v1.5.1PL2 Copyright (c) Steve Scherf et al.
# Submitted via: Collectorz.com_Music_Collector 6.10
#
DISCID=26100814
DTITLE=Frank Salamone - Rhymes with Alimony
DYEAR=2004
DGENRE=Acoustic Blues - Acoustic Guitar - Country Blues - General Blues - Traditional Folk
TTITLE0=One Way Gal
TTITLE1=Book Cooking
TTITLE2=Turn Your Money Green
TTITLE3=Nineteen Fifty-One
TTITLE4=Muggsy and Estee
TTITLE5=Bad Dream Blues
TTITLE6=Let Me Be Your Rocker
TTITLE7=Letter Never Sent
TTITLE8=Can't See Your Face
TTITLE9=Honor Bright
TTITLE10=Louis Collins
TTITLE11=Bullfrog Blues
TTITLE12=Alexander
TTITLE13=Texas and Louisiana Stomp
TTITLE14=Right Now Blues
TTITLE15="Not Now, Cato"
TTITLE16=Stop and Listen
TTITLE17=The Milkman Cometh
TTITLE18=Hey Hey, Daddy
TTITLE19=Delia
EXTD=
EXTT0=
EXTT1=
EXTT2=
EXTT3=
EXTT4=
EXTT5=
EXTT6=
EXTT7=
EXTT8=
EXTT9=
EXTT10=
EXTT11=
EXTT12=
EXTT13=
EXTT14=
EXTT15=
EXTT16=
EXTT17=
EXTT18=
EXTT19=
PLAYORDER=
